<svg width="21" height="20" viewBox="0 0 21 20" fill="none" xmlns="http://www.w3.org/2000/svg">
<path d="M16.3334 3.33329H14.6667V2.49996C14.6667 2.27895 14.579 2.06698 14.4227 1.9107C14.2664 1.75442 14.0544 1.66663 13.8334 1.66663C13.6124 1.66663 13.4004 1.75442 13.2442 1.9107C13.0879 2.06698 13.0001 2.27895 13.0001 2.49996V3.33329H8.00008V2.49996C8.00008 2.27895 7.91228 2.06698 7.756 1.9107C7.59972 1.75442 7.38776 1.66663 7.16675 1.66663C6.94573 1.66663 6.73377 1.75442 6.57749 1.9107C6.42121 2.06698 6.33342 2.27895 6.33342 2.49996V3.33329H4.66675C4.00371 3.33329 3.36782 3.59668 2.89898 4.06553C2.43014 4.53437 2.16675 5.17025 2.16675 5.83329V15.8333C2.16675 16.4963 2.43014 17.1322 2.89898 17.6011C3.36782 18.0699 4.00371 18.3333 4.66675 18.3333H16.3334C16.9965 18.3333 17.6323 18.0699 18.1012 17.6011C18.57 17.1322 18.8334 16.4963 18.8334 15.8333V5.83329C18.8334 5.17025 18.57 4.53437 18.1012 4.06553C17.6323 3.59668 16.9965 3.33329 16.3334 3.33329ZM17.1667 15.8333C17.1667 16.0543 17.079 16.2663 16.9227 16.4225C16.7664 16.5788 16.5544 16.6666 16.3334 16.6666H4.66675C4.44573 16.6666 4.23377 16.5788 4.07749 16.4225C3.92121 16.2663 3.83341 16.0543 3.83341 15.8333V9.99996H17.1667V15.8333ZM17.1667 8.33329H3.83341V5.83329C3.83341 5.61228 3.92121 5.40032 4.07749 5.24404C4.23377 5.08776 4.44573 4.99996 4.66675 4.99996H6.33342V5.83329C6.33342 6.05431 6.42121 6.26627 6.57749 6.42255C6.73377 6.57883 6.94573 6.66663 7.16675 6.66663C7.38776 6.66663 7.59972 6.57883 7.756 6.42255C7.91228 6.26627 8.00008 6.05431 8.00008 5.83329V4.99996H13.0001V5.83329C13.0001 6.05431 13.0879 6.26627 13.2442 6.42255C13.4004 6.57883 13.6124 6.66663 13.8334 6.66663C14.0544 6.66663 14.2664 6.57883 14.4227 6.42255C14.579 6.26627 14.6667 6.05431 14.6667 5.83329V4.99996H16.3334C16.5544 4.99996 16.7664 5.08776 16.9227 5.24404C17.079 5.40032 17.1667 5.61228 17.1667 5.83329V8.33329Z" fill="#959595"/>
</svg>
