<svg width="20" height="20" viewBox="0 0 20 20" fill="none" xmlns="http://www.w3.org/2000/svg">
<path d="M15.8333 9.16665H10.8333V4.16665C10.8333 3.94563 10.7455 3.73367 10.5892 3.57739C10.4329 3.42111 10.2209 3.33331 9.99992 3.33331C9.7789 3.33331 9.56694 3.42111 9.41066 3.57739C9.25438 3.73367 9.16658 3.94563 9.16658 4.16665V9.16665H4.16659C3.94557 9.16665 3.73361 9.25444 3.57733 9.41072C3.42105 9.567 3.33325 9.77897 3.33325 9.99998C3.33325 10.221 3.42105 10.433 3.57733 10.5892C3.73361 10.7455 3.94557 10.8333 4.16659 10.8333H9.16658V15.8333C9.16658 16.0543 9.25438 16.2663 9.41066 16.4226C9.56694 16.5788 9.7789 16.6666 9.99992 16.6666C10.2209 16.6666 10.4329 16.5788 10.5892 16.4226C10.7455 16.2663 10.8333 16.0543 10.8333 15.8333V10.8333H15.8333C16.0543 10.8333 16.2662 10.7455 16.4225 10.5892C16.5788 10.433 16.6666 10.221 16.6666 9.99998C16.6666 9.77897 16.5788 9.567 16.4225 9.41072C16.2662 9.25444 16.0543 9.16665 15.8333 9.16665Z" fill="white"/>
</svg>
