<svg width="20" height="20" viewBox="0 0 20 20" fill="none" xmlns="http://www.w3.org/2000/svg">
<path d="M18.0916 16.9083L14.9999 13.8416C16.2 12.3453 16.7812 10.4461 16.6239 8.5344C16.4667 6.62273 15.583 4.84397 14.1545 3.56385C12.7261 2.28374 10.8614 1.59957 8.94402 1.65204C7.02662 1.70451 5.20219 2.48962 3.84587 3.84593C2.48956 5.20225 1.70445 7.02668 1.65198 8.94408C1.59951 10.8615 2.28368 12.7261 3.56379 14.1546C4.84391 15.583 6.62267 16.4667 8.53434 16.624C10.446 16.7812 12.3453 16.2001 13.8416 15L16.9083 18.0666C16.9857 18.1448 17.0779 18.2067 17.1794 18.2491C17.281 18.2914 17.3899 18.3131 17.4999 18.3131C17.6099 18.3131 17.7189 18.2914 17.8204 18.2491C17.9219 18.2067 18.0141 18.1448 18.0916 18.0666C18.2418 17.9113 18.3257 17.7036 18.3257 17.4875C18.3257 17.2714 18.2418 17.0637 18.0916 16.9083ZM9.16659 15C8.01286 15 6.88505 14.6579 5.92576 14.0169C4.96647 13.3759 4.2188 12.4649 3.77729 11.399C3.33578 10.3331 3.22026 9.16018 3.44534 8.02862C3.67042 6.89707 4.22599 5.85766 5.0418 5.04186C5.8576 4.22605 6.897 3.67048 8.02856 3.4454C9.16012 3.22032 10.333 3.33584 11.3989 3.77735C12.4648 4.21886 13.3759 4.96653 14.0168 5.92582C14.6578 6.88511 14.9999 8.01292 14.9999 9.16665C14.9999 10.7137 14.3853 12.1975 13.2914 13.2914C12.1974 14.3854 10.7137 15 9.16659 15Z" fill="#959595"/>
</svg>
